# xmcd
#
# Track frame offsets: 
#        183
#        29008
#        53758
#        64020
#        91583
#        111033
#        133520
#        154858
#        186208
#        202933
#        237570
#        253745
#        277870
#
# Disc length: 4012 seconds
#
# Revision: 6
# Processed by: cddbd v1.5.2PL0 Copyright (c) Steve Scherf et al.
# Submitted via: ExactAudioCopy v1.0b3
#
DISCID=ae0faa0d
DTITLE=John Mayall - Archives To Eighties
DYEAR=1988
DGENRE=Blues
TTITLE0=Accidental Suicide
TTITLE1=Force Of Nature
TTITLE2=Boogie Albert
TTITLE3=Television Eye
TTITLE4=Prisons On The Road
TTITLE5=Home Again
TTITLE6=Mr. Censor Man
TTITLE7=Looking At Tomorrow
TTITLE8=Blue Fox
TTITLE9=Devil's Tricks
TTITLE10=Marriage Madness
TTITLE11=Dream With Me
TTITLE12=My Children
EXTD=
EXTT0=
EXTT1=
EXTT2=
EXTT3=
EXTT4=
EXTT5=
EXTT6=
EXTT7=
EXTT8=
EXTT9=
EXTT10=
EXTT11=
EXTT12=
PLAYORDER=
